#!OML:ASF E:\EmotionMaleHayes\Project 1\Capture day 1\Session 1\Male1.ASF
:FULLY-SPECIFIED
:DEGREES
305
root 5.36679 16.4793 0.53819 454.613 82.8803 456.931
lowerback 4.42179 -0.601482 -9.78705
upperback 3.26407 -1.0397 0.00976007
thorax 1.10962 -0.658039 5.53833
lowerneck -22.5289 1.90076 3.86329
upperneck 31.9832 2.34734 -1.42674
head 14.9784 1.46818 -0.753141
rclavicle -1.30204e-014 3.97569e-016
rhumerus -39.9477 -8.93101 -77.4054
rradius 25.0664
rwrist 8.32239
rhand -11.8752 -27.3494
rfingers 7.12502
rthumb 14.1772 -56.8456
lclavicle -1.30204e-014 3.97569e-016
lhumerus -22.42 -14.3256 93.2754
lradius 32.7505
lwrist -4.858
lhand -18.5054 -30.3575
lfingers 7.12502
lthumb 7.78253 -0.520731
rfemur -24.7026 -2.35441 13.756
rtibia 33.4935
rfoot -12.1 0.420686
rtoes 15.6942
lfemur 32.2839 -2.16013 -29.617
ltibia -3.81667e-014
lfoot -3.4478 6.5808
ltoes -25.3157
306
root 5.52826 16.4967 0.560329 452.729 83.2849 455.349
lowerback 4.60761 -0.513187 -9.31133
upperback 3.28351 -0.927068 0.0832346
thorax 0.995157 -0.590142 5.34734
lowerneck -22.4013 1.93535 4.04513
upperneck 32.0194 2.38695 -1.55824
head 14.9731 1.49186 -0.831913
rclavicle 5.06901e-015 -3.97569e-015
rhumerus -39.3863 -8.52564 -77.8418
rradius 25.0938
rwrist 8.16975
rhand -11.8727 -27.2631
rfingers 7.12502
rthumb 14.1796 -56.7591
lclavicle 5.06901e-015 -3.97569e-015
lhumerus -23.2709 -13.6121 93.2814
lradius 31.6737
lwrist -5.71471
lhand -18.4819 -30.3462
lfingers 7.12502
lthumb 7.80522 -0.510228
rfemur -23.6104 -2.14321 14.3065
rtibia 33.2731
rfoot -12.352 0.808945
rtoes 16.6052
lfemur 29.7921 -1.99513 -29.1648
ltibia 6.26206
lfoot -4.06718 6.55694
ltoes -24.5342
307
root 5.68548 16.5161 0.58199 451.355 83.7836 454.26
lowerback 4.76891 -0.444202 -8.71602
upperback 3.33117 -0.829617 0.193471
thorax 0.925828 -0.531428 5.12647
lowerneck -22.3634 1.98261 4.13255
upperneck 32.0836 2.4422 -1.58852
head 14.9984 1.52456 -0.848732
rclavicle -3.08116e-015 1.98785e-015
rhumerus -38.8266 -8.26669 -78.1884
rradius 25.2216
rwrist 8.15981
rhand -12.0845 -26.7719
rfingers 7.12502
rthumb 13.9756 -56.2822
lclavicle -3.08116e-015 1.98785e-015
lhumerus -24.0123 -12.8495 93.2641
lradius 30.5891
lwrist -6.63025
lhand -18.4304 -30.1488
lfingers 7.12502
lthumb 7.85496 -0.314719
rfemur -22.4807 -1.88425 14.9643
rtibia 32.9776
rfoot -12.7314 0.829964
rtoes 17.0383
lfemur 26.9447 -1.91742 -28.5598
ltibia 13.07
lfoot -4.69103 6.38862
ltoes -23.759
308
root 5.83874 16.5423 0.602518 449.218 84.3891 452.391
lowerback 4.97638 -0.330375 -7.97048
upperback 3.36535 -0.669776 0.325363
thorax 0.806526 -0.437039 4.84097
lowerneck -22.4919 1.98887 4.12712
upperneck 32.2779 2.43554 -1.52106
head 15.1159 1.53497 -0.819403
rclavicle -5.76476e-015 -6.75868e-015
rhumerus -38.2699 -8.11337 -78.5088
rradius 25.3463
rwrist 8.08253
rhand -12.2805 -27.04
rfingers 7.12502
rthumb 13.7867 -56.5632
lclavicle -5.76476e-015 -6.75868e-015
lhumerus -24.7248 -11.953 93.2172
lradius 29.493
lwrist -7.83822
lhand -18.3042 -29.7641
lfingers 7.12502
lthumb 7.97678 0.0653586
rfemur -21.3544 -1.75335 15.7601
rtibia 32.6313
rfoot -13.0368 0.92543
rtoes 17.0289
lfemur 24.9341 -1.21568 -27.5039
ltibia 17.9931
lfoot -4.12801 5.86054
ltoes -23.0167
309
root 5.98676 16.565 0.623532 446.714 84.9433 450.171
lowerback 5.23954 -0.192402 -7.22306
upperback 3.39497 -0.477452 0.399222
thorax 0.650446 -0.324241 4.49134
lowerneck -22.4868 1.92605 4.1091
upperneck 32.3387 2.32031 -1.4234
head 15.1369 1.50132 -0.797404
rclavicle -2.23633e-015 9.93923e-015
rhumerus -37.7429 -7.81166 -79.0014
rradius 25.5373
rwrist 7.78666
rhand -12.2718 -27.8323
rfingers 7.12502
rthumb 13.7951 -57.355
lclavicle -2.23633e-015 9.93923e-015
lhumerus -25.3498 -10.9435 93.0295
lradius 28.2227
lwrist -9.23126
lhand -17.9326 -29.5606
lfingers 7.12502
lthumb 8.33538 0.254987
rfemur -20.2 -1.74576 16.5081
rtibia 32.1956
rfoot -13.2194 1.19079
rtoes 17.0893
lfemur 23.1674 -0.535872 -26.4784
ltibia 22.3588
lfoot -3.2557 5.55375
ltoes -21.2131
310
root 6.13109 16.5811 0.649803 445.575 85.4294 449.304
lowerback 5.51062 -0.110706 -6.61995
upperback 3.4201 -0.36177 0.446008
thorax 0.501617 -0.252375 4.1968
lowerneck -22.3751 1.88841 4.26332
upperneck 32.293 2.2272 -1.47373
head 15.0905 1.4754 -0.863618
rclavicle 8.94531e-016 2.62396e-014
rhumerus -37.1421 -7.50687 -79.5324
rradius 25.6521
rwrist 7.60054
rhand -12.3208 -27.9407
rfingers 7.12502
rthumb 13.7478 -57.4665
lclavicle 8.94531e-016 2.62396e-014
lhumerus -25.9764 -9.83031 92.7154
lradius 26.9357
lwrist -10.5698
lhand -17.2499 -29.4034
lfingers 7.12502
lthumb 8.99418 0.384893
rfemur -19.0143 -1.73325 17.1691
rtibia 31.6557
rfoot -13.4893 1.32757
rtoes 16.8055
lfemur 21.4907 0.00321088 -25.4879
ltibia 26.4418
lfoot -1.84462 5.29294
ltoes -16.9135
311
root 6.27143 16.5982 0.677705 444.708 85.9922 448.672
lowerback 5.79639 -0.075303 -6.05529
upperback 3.47057 -0.304908 0.591306
thorax 0.381676 -0.213383 4.02844
lowerneck -22.4932 1.84335 4.3091
upperneck 32.3133 2.15563 -1.5352
head 15.1253 1.44076 -0.910599
rclavicle -1.09829e-014 1.19271e-015
rhumerus -36.414 -7.07071 -79.9929
rradius 25.8672
rwrist 7.43134
rhand -12.5647 -27.7537
rfingers 7.12502
rthumb 13.5128 -57.2953
lclavicle -1.09829e-014 1.19271e-015
lhumerus -26.5089 -8.60169 92.3765
lradius 25.739
lwrist -11.992
lhand -16.6132 -29.0553
lfingers 7.12502
lthumb 9.60859 0.7056
rfemur -17.8304 -1.8223 17.9137
rtibia 31.02
rfoot -13.7644 1.41898
rtoes 16.0954
lfemur 19.8246 0.501716 -24.3976
ltibia 30.2959
lfoot -0.0859931 5.12656
ltoes -12.6899
